# xmcd
#
# Track frame offsets: 
#        150
#        12634
#        30977
#        57040
#        71262
#        89930
#        116995
#        131022
#        149750
#        165727
#
# Disc length: 2453 seconds
#
# Revision: 0
# Processed by: cddbd v1.5.2PL0 Copyright (c) Steve Scherf et al.
# Submitted via: ExactAudioCopy v0.99pb5
#
DISCID=9409930a
DTITLE=Hornbuckle Brothers - Pass The Torch
DYEAR=1999
DGENRE=Blues
TTITLE0=Coming Home To You
TTITLE1=Fly
TTITLE2=I Don't Need Nobody
TTITLE3=Outside Woman Blues
TTITLE4=The Blues Is All Right
TTITLE5=If You Go
TTITLE6=Please Please Baby
TTITLE7=Down In The Valley
TTITLE8=Skogmo Boogie
TTITLE9=Ship Of Fools
EXTD=
EXTT0=
EXTT1=
EXTT2=
EXTT3=
EXTT4=
EXTT5=
EXTT6=
EXTT7=
EXTT8=
EXTT9=
PLAYORDER=
